HIERARCHY
ROOT Hips
{
 OFFSET 0.000000 0.000000 0.000000
 CHANNELS 6 Xposition Yposition Zposition Yrotation Xrotation Zrotation
 JOINT Chest
 {
  OFFSET 0.000000 13.173100 -0.061900
  CHANNELS 3 Yrotation Xrotation Zrotation
  JOINT Chest2
  {
   OFFSET 0.000000 8.040800 0.126200
   CHANNELS 3 Yrotation Xrotation Zrotation
   JOINT Chest3
   {
    OFFSET 0.000000 7.994400 0.000000
    CHANNELS 3 Yrotation Xrotation Zrotation
    JOINT Chest4
    {
     OFFSET 0.000000 7.986200 0.000000
     CHANNELS 3 Yrotation Xrotation Zrotation
     JOINT Neck
     {
      OFFSET 0.000000 12.259400 0.000000
      CHANNELS 3 Yrotation Xrotation Zrotation
      JOINT Head
      {
       OFFSET 0.000000 7.518700 0.267100
       CHANNELS 3 Yrotation Xrotation Zrotation
       End Site
       {
        OFFSET 0.000000 13.617700 0.141000
       }
      }
     }
     JOINT RightCollar
     {
      OFFSET -2.983800 8.314300 0.000000
      CHANNELS 3 Yrotation Xrotation Zrotation
      JOINT RightShoulder
      {
       OFFSET -16.133400 0.000000 0.000000
       CHANNELS 3 Yrotation Xrotation Zrotation
       JOINT RightElbow
       {
        OFFSET 0.000000 -29.822100 0.000000
        CHANNELS 3 Yrotation Xrotation Zrotation
        JOINT RightWrist
        {
         OFFSET 0.000000 -24.437700 0.010900
         CHANNELS 3 Yrotation Xrotation Zrotation
         End Site
         {
          OFFSET 0.000000 -18.312300 0.000000
         }
        }
       }
      }
     }
     JOINT LeftCollar
     {
      OFFSET 2.983800 8.314300 0.000000
      CHANNELS 3 Yrotation Xrotation Zrotation
      JOINT LeftShoulder
      {
       OFFSET 16.133400 0.000000 0.000000
       CHANNELS 3 Yrotation Xrotation Zrotation
       JOINT LeftElbow
       {
        OFFSET 0.000000 -29.822100 0.000000
        CHANNELS 3 Yrotation Xrotation Zrotation
        JOINT LeftWrist
        {
         OFFSET 0.000000 -24.437700 0.010900
         CHANNELS 3 Yrotation Xrotation Zrotation
         End Site
         {
          OFFSET 0.000000 -18.312300 0.000000
         }
        }
       }
      }
     }
    }
   }
  }
 }
 JOINT RightHip
 {
  OFFSET -11.206700 0.306200 0.030900
  CHANNELS 3 Yrotation Xrotation Zrotation
  JOINT RightKnee
  {
   OFFSET 0.000000 -57.334900 0.009400
   CHANNELS 3 Yrotation Xrotation Zrotation
   JOINT RightAnkle
   {
    OFFSET 0.000000 -43.376200 0.036600
    CHANNELS 3 Yrotation Xrotation Zrotation
    JOINT RightToe
    {
     OFFSET 0.000000 -10.035500 18.363100
     CHANNELS 3 Yrotation Xrotation Zrotation
     End Site
     {
      OFFSET 0.000000 -1.618500 7.239000
     }
    }
   }
  }
 }
 JOINT LeftHip
 {
  OFFSET 11.206700 0.306200 0.030900
  CHANNELS 3 Yrotation Xrotation Zrotation
  JOINT LeftKnee
  {
   OFFSET 0.000000 -57.334900 0.009400
   CHANNELS 3 Yrotation Xrotation Zrotation
   JOINT LeftAnkle
   {
    OFFSET 0.000000 -43.376200 0.036600
    CHANNELS 3 Yrotation Xrotation Zrotation
    JOINT LeftToe
    {
     OFFSET 0.000000 -10.035500 18.363100
     CHANNELS 3 Yrotation Xrotation Zrotation
     End Site
     {
      OFFSET 0.000000 -1.618500 7.239000
     }
    }
   }
  }
 }
}
MOTION
Frames: 15
Frame Time: 0.008333
-98.246284 67.166166 86.517947 174.200268 -39.050068 -3.460504 2.865028 21.236077 2.174632 0.373791 2.784358 0.258739 0.592918 4.598305 0.464078 2.697054 17.901047 2.055522 0.213492 15.729879 0.525001 0.194622 -6.572767 0.918609 -3.214217 1.396477 -2.293469 -5.286483 -1.446500 4.137285 155.398318 -82.290375 -146.371249 1.960929 1.095985 -1.001605 -2.270846 0.373508 -0.290840 7.077697 -4.117505 1.688786 164.149063 -80.900299 -179.507027 -7.239560 -2.979757 8.103311 -1.253842 -45.603180 3.342503 -113.859493 84.910047 -110.459947 -1.385368 -0.524874 2.909733 0.157337 -0.312546 -1.063196 -5.275156 -37.922739 4.029155 65.244470 83.867799 54.922636 -5.093355 -11.358655 8.624876 0.140136 -0.089004 0.161961
-98.231034 67.143926 86.583812 174.080163 -38.943027 -3.439192 2.935517 21.196539 2.253012 0.361882 2.804995 0.269649 0.622082 4.533830 0.426883 2.682264 17.944022 2.086756 0.223234 15.745159 0.530302 0.220135 -6.573103 0.897964 -3.193393 1.384708 -2.297770 -5.300954 -1.455517 4.128148 155.272211 -82.235600 -146.256841 1.981256 1.072489 -0.992011 -2.275590 0.345981 -0.293657 7.075600 -4.139750 1.708342 163.800698 -80.868648 -179.232513 -7.152733 -3.424187 8.493607 -1.677887 -45.211858 3.691534 -111.136082 84.798255 -107.816594 -1.109927 -1.483773 2.195629 0.119819 0.271196 -0.447000 -5.207105 -38.049620 4.108367 65.153794 83.833547 54.851794 -5.093492 -11.364085 8.619571 0.106840 -0.060106 0.147772
-98.202860 67.113754 86.662079 173.880034 -38.791741 -3.426463 3.107848 21.056534 2.373576 0.329619 2.854336 0.295524 0.651308 4.490575 0.401201 2.670314 17.993906 2.122352 0.233038 15.744329 0.522563 0.245257 -6.557023 0.889237 -3.172320 1.368892 -2.305439 -5.309563 -1.494664 4.102915 155.148614 -82.224469 -146.165847 1.980912 1.069405 -0.948060 -2.268532 0.292278 -0.321385 7.068788 -4.156758 1.711990 163.127074 -80.875540 -178.677593 -7.011099 -4.063921 9.076940 -2.154023 -44.884115 4.190131 -107.429071 84.753715 -104.263227 -0.835761 -2.357469 1.634895 0.024334 0.771612 -0.072185 -5.132544 -38.222545 4.274513 65.161889 83.797518 54.876533 -5.090213 -11.381063 8.632228 0.044745 -0.025261 0.111312
-98.173264 67.084443 86.738918 173.651575 -38.658789 -3.405912 3.280867 20.965036 2.512943 0.321478 2.862638 0.295903 0.627893 4.552144 0.434027 2.696747 17.958072 2.101589 0.242924 15.743864 0.512579 0.267319 -6.557951 0.867076 -3.152543 1.352725 -2.315734 -5.331309 -1.477968 4.114936 155.131133 -82.202599 -146.204132 2.013349 1.047598 -0.838652 -2.254269 0.213701 -0.375549 6.970206 -4.159266 1.802788 161.763534 -80.875748 -177.364565 -6.844079 -4.880016 9.829612 -2.579585 -44.539101 4.686336 -103.773718 85.082671 -100.760188 -0.990553 -3.230351 1.419702 0.000521 1.226295 -0.038141 -5.056984 -38.373506 4.457386 65.268066 83.746742 54.991062 -5.108701 -11.406001 8.634958 0.002057 0.015342 0.079526
-98.153404 67.063219 86.801890 173.504544 -38.594754 -3.396963 3.325131 20.995648 2.612744 0.363121 2.825787 0.276146 0.620732 4.581472 0.448796 2.718423 17.956543 2.107572 0.253294 15.744142 0.499570 0.291304 -6.557590 0.839129 -3.136458 1.340317 -2.327224 -5.355380 -1.459864 4.131874 155.244132 -82.177123 -146.346028 2.046163 1.060416 -0.732855 -2.261693 0.208146 -0.355908 6.870051 -4.231473 1.813208 160.290195 -80.868828 -175.914862 -6.679009 -5.820746 10.712885 -2.895297 -44.141979 5.023657 -100.156277 85.699960 -97.212002 -1.385198 -4.084267 1.249705 0.012197 1.584065 -0.049029 -4.995320 -38.464328 4.593487 65.311635 83.745558 55.050913 -5.145627 -11.396342 8.605506 -0.001829 0.016328 0.087704
-98.141039 67.045596 86.855744 173.409609 -38.572004 -3.394466 3.351624 21.034144 2.681292 0.377932 2.819185 0.272510 0.623605 4.594833 0.454268 2.728093 17.977201 2.127579 0.264741 15.744820 0.482409 0.318746 -6.556432 0.803027 -3.120074 1.333779 -2.340315 -5.373262 -1.462196 4.140979 155.464963 -82.168988 -146.588229 2.073562 1.104490 -0.626936 -2.255583 0.195453 -0.356757 6.770652 -4.293210 1.828492 159.206705 -80.833157 -174.854881 -6.544669 -6.820616 11.685295 -3.051964 -43.758429 5.186470 -96.218620 86.399812 -93.228045 -1.744812 -4.838057 0.916557 -0.001061 1.796531 0.063068 -4.953432 -38.513626 4.690248 65.387772 83.736915 55.136026 -5.173672 -11.382857 8.566593 0.013432 -0.003972 0.078827
-98.142300 67.025400 86.905623 173.381469 -38.552217 -3.381624 3.327934 21.056688 2.694094 0.378390 2.829510 0.276242 0.624340 4.610858 0.460294 2.728924 18.002965 2.148300 0.276720 15.745287 0.460605 0.348997 -6.555566 0.758049 -3.102299 1.331940 -2.353773 -5.377642 -1.513625 4.122436 155.835495 -82.223429 -146.989711 2.106413 1.157395 -0.521275 -2.252705 0.181867 -0.363385 6.673077 -4.339230 1.855774 158.805179 -80.738241 -174.439928 -6.478213 -7.793920 12.692200 -3.055394 -43.448467 5.159751 -91.801320 87.138240 -88.656547 -2.106672 -5.470255 0.447200 -0.003527 1.875074 0.258078 -4.922831 -38.560110 4.713537 65.694445 83.622693 55.445097 -5.309685 -11.328724 8.515656 0.013005 -0.000724 0.122213
-98.144504 67.005652 86.949334 173.364168 -38.557652 -3.372430 3.305233 21.097929 2.704943 0.377498 2.840294 0.280073 0.622836 4.627535 0.466496 2.720792 18.030608 2.168461 0.291085 15.704329 0.412007 0.379001 -6.514186 0.729421 -3.076335 1.288848 -2.392949 -5.400750 -1.447714 4.181829 156.154213 -82.199716 -147.310375 2.143731 1.210098 -0.427028 -2.262234 0.180965 -0.360411 6.595990 -4.368307 1.878309 159.309248 -80.575678 -174.892795 -6.494715 -8.660724 13.674863 -2.945432 -43.187524 5.046773 -86.363765 87.810740 -83.001497 -2.429711 -5.996813 -0.025940 0.004584 1.855525 0.434551 -4.886944 -38.583466 4.717301 65.850298 83.555235 55.610928 -5.388383 -11.279454 8.502941 0.009289 -0.006374 0.128192
-98.146405 66.984485 86.988964 173.366759 -38.574916 -3.373311 3.274808 21.146873 2.713041 0.374806 2.850292 0.283715 0.626363 4.630523 0.465732 2.695916 18.069259 2.194224 0.309314 15.726702 0.396661 0.405684 -6.572910 0.667391 -3.043795 1.254342 -2.427302 -5.422097 -1.384150 4.247713 156.441742 -82.174071 -147.596407 2.187043 1.259414 -0.345403 -2.277327 0.193239 -0.351465 6.548032 -4.371570 1.898073 160.671057 -80.343975 -176.150347 -6.566493 -9.368889 14.543798 -2.778612 -42.963748 4.887538 -79.864582 88.256710 -76.286345 -2.575357 -6.475513 -0.399774 -0.005523 1.801878 0.539063 -4.852393 -38.595015 4.704248 65.922499 83.509063 55.701852 -5.430493 -11.239894 8.501520 0.007715 -0.015391 0.111370
-98.149782 66.958597 87.028329 173.373612 -38.580003 -3.363983 3.251969 21.167814 2.702669 0.372920 2.855008 0.285459 0.631231 4.625350 0.461905 2.647536 18.129419 2.231111 0.338799 15.712207 0.360974 0.461281 -6.535285 0.611117 -3.013177 1.266187 -2.430710 -5.425346 -1.392308 4.274828 156.714870 -82.175766 -147.879737 2.238615 1.304594 -0.268540 -2.295480 0.215623 -0.342945 6.533716 -4.346551 1.921519 162.572882 -80.033015 -177.907324 -6.678711 -9.881101 15.247953 -2.589687 -42.829489 4.722124 -75.666628 88.430824 -71.907077 -2.556265 -6.859017 -0.664480 -0.004808 1.683237 0.582845 -4.800929 -38.619944 4.664161 65.972980 83.460667 55.777941 -5.467403 -11.202208 8.516471 0.028112 -0.023875 0.073168
-98.150367 66.931867 87.063647 173.377206 -38.595771 -3.353795 3.234730 21.198821 2.694351 0.370560 2.859441 0.287114 0.591517 4.692695 0.495056 2.619390 18.117646 2.213953 0.379673 15.679860 0.319895 0.523797 -6.472851 0.566210 -3.021486 1.334247 -2.383286 -5.378584 -1.467600 4.256158 156.731908 -82.131097 -147.891727 2.255115 1.350041 -0.223522 -2.318343 0.242872 -0.337911 6.557252 -4.299623 1.954205 164.544815 -79.641338 -179.785186 -6.849969 -10.190091 15.826385 -2.427757 -42.745970 4.590715 -75.517862 88.402804 -71.635796 -2.416338 -7.143182 -0.800220 -0.005338 1.509359 0.555837 -4.736996 -38.633706 4.613720 66.010683 83.435464 55.855531 -5.487469 -11.181674 8.542917 0.030013 -0.015284 0.046717
-98.146224 66.903186 87.096397 173.366023 -38.614039 -3.344524 3.231047 21.242134 2.705126 0.358207 2.887763 0.297914 0.593954 4.675655 0.482725 2.565455 18.157067 2.222998 0.400458 15.740193 0.323577 0.611564 -6.508303 0.484798 -3.020722 1.362016 -2.357520 -5.334648 -1.508868 4.252526 157.045467 -82.151874 -148.242877 2.360405 1.316275 -0.151271 -2.344149 0.270227 -0.336772 6.620638 -4.241221 1.997731 166.175772 -79.187633 178.588301 -7.059660 -10.325800 16.266803 -2.348656 -42.705284 4.531240 -77.619314 88.259961 -73.691978 -2.220887 -7.307680 -0.836675 -0.003732 1.287900 0.475468 -4.668171 -38.645112 4.571715 66.072129 83.408469 55.958732 -5.503339 -11.153961 8.581964 0.013475 -0.018714 0.002137
-98.147322 66.868684 87.127462 173.428287 -38.615185 -3.350266 3.167390 21.280719 2.683834 0.353112 2.915007 0.301813 0.576923 4.688983 0.486430 2.513183 18.165626 2.219367 0.431230 15.773456 0.314093 0.689640 -6.503454 0.429312 -3.014934 1.373263 -2.341131 -5.301935 -1.540191 4.254916 157.245554 -82.146660 -148.460692 2.431004 1.410295 -0.097198 -2.364711 0.294089 -0.340683 6.718689 -4.178679 2.049601 167.276533 -78.705194 177.481409 -7.237388 -10.343119 16.453940 -2.423278 -42.718049 4.501284 -81.128552 88.095696 -77.246812 -2.026842 -7.408344 -0.808721 0.000461 1.053500 0.367228 -4.643078 -38.674705 4.497539 66.071206 83.376067 55.983365 -5.510793 -11.131322 8.619582 -0.010786 -0.002334 -0.026049
-98.158662 66.818675 87.164150 173.541963 -38.553484 -3.340831 3.050278 21.272086 2.609991 0.343672 2.925960 0.302082 0.560293 4.715452 0.493431 2.462389 18.172162 2.216818 0.464866 15.789638 0.299031 0.757796 -6.473351 0.389257 -3.019707 1.389683 -2.323604 -5.270383 -1.577284 4.255700 157.227000 -82.079499 -148.416608 2.483415 1.468437 -0.124278 -2.376323 0.314176 -0.349575 6.846470 -4.119383 2.107376 167.750867 -78.231878 177.008877 -7.351112 -10.304265 16.359152 -2.585234 -42.841874 4.463294 -84.965727 87.927665 -81.187977 -1.877002 -7.354538 -0.749698 0.024768 0.741346 0.261890 -4.645189 -38.773523 4.381431 65.780264 83.357410 55.688172 -5.484995 -11.089626 8.677316 -0.033516 0.026800 -0.050788
-98.151390 66.768062 87.187713 173.592799 -38.559961 -3.361258 3.022942 21.379175 2.625489 0.330940 2.842600 0.283214 0.551075 4.766550 0.508661 2.416646 18.194501 2.223456 0.492760 15.807964 0.285002 0.814898 -6.439174 0.353089 -3.039361 1.413809 -2.310367 -5.240934 -1.611457 4.258621 157.264358 -82.082649 -148.505143 2.607466 1.418196 -0.082436 -2.383807 0.336309 -0.365099 6.998449 -4.072024 2.167261 167.511115 -77.794163 177.117665 -7.440067 -10.232320 16.135767 -2.692474 -42.857041 4.490921 -86.727360 87.744214 -83.018503 -1.729870 -7.332776 -0.659587 0.026190 0.530985 0.157718 -4.667693 -38.799776 4.361576 65.831289 83.366851 55.742430 -5.468369 -11.097379 8.726876 -0.045085 0.059894 -0.081667
